<?xml version="1.0" standalone="no"?><!DOCTYPE svg PUBLIC "-//W3C//DTD SVG 1.1//EN" "http://www.w3.org/Graphics/SVG/1.1/DTD/svg11.dtd"><svg t="1687451369866" class="icon" viewBox="0 0 1024 1024" version="1.1" xmlns="http://www.w3.org/2000/svg" p-id="2363" xmlns:xlink="http://www.w3.org/1999/xlink" width="200" height="200"><path d="M511.998194 512m-511.998194 0a511.998194 511.998194 0 1 0 1023.996388 0 511.998194 511.998194 0 1 0-1023.996388 0Z" fill="#06B666" p-id="2364"></path><path d="M259.766871 627.495091c28.274559-179.252832 101.887034-247.538765 189.57357-273.147344 110.340141-34.142967 203.705431-8.534387 297.063496-56.904945 73.556481-34.142967 56.579825-2.844796 53.754897 31.271078-14.146311 119.49948-70.735167 236.161389-195.227036 290.219731-135.786161 56.932037-268.770875-54.031249-364.970124 119.528379l-2.826733 2.844796h-14.148117s-2.82854-2.844796-2.82854-5.689592v-2.841183c36.780047-79.670534 87.711823-147.958274 155.611225-202.023841 65.079893-51.208128 135.816866-91.065973 215.030428-116.654684 5.664304-2.844796 2.833958-14.227591-2.824928-11.379182-62.247741 14.223978-118.829372 36.967894-172.589688 71.128922-62.245935 39.83617-116.004445 91.056942-155.61845 153.647865z" fill="#FFFFFF" p-id="2365"></path></svg>